Coordinates
version=1
nRows=17
nColumns=24
inDegrees=yes

Units are S.I. units (second, meters, Newtons, ...)
Angles are in degrees.

endheader
time	pelvis_tilt	pelvis_list	pelvis_rotation	pelvis_tx	pelvis_ty	pelvis_tz	hip_flexion_r	hip_adduction_r	hip_rotation_r	knee_angle_r	ankle_angle_r	subtalar_angle_r	mtp_angle_r	hip_flexion_l	hip_adduction_l	hip_rotation_l	knee_angle_l	ankle_angle_l	subtalar_angle_l	mtp_angle_l	lumbar_extension	lumbar_bending	lumbar_rotation
      0.85033333	      4.17377512	     -4.18169937	      8.94334977	     -0.50497819	      1.03479799	      0.34902274	      6.99616761	     10.44802920	     -2.29284823	    -16.08250111	      3.59891495	    -12.69514199	      6.08458052	     15.73301001	     -8.36570470	      0.41674353	    -67.88088050	     -1.71001892	     -5.35134000	     -1.50077917	     -5.89342156	      0.92420987	     -2.13145595
      0.85450000	      4.17566648	     -4.08355124	      8.89019434	     -0.50018793	      1.03559187	      0.34931219	      6.53459609	     10.39381536	     -2.28519065	    -15.79832485	      3.75258361	    -12.48179404	      6.08582061	     16.18478087	     -8.18118016	      0.39711940	    -67.43741418	     -0.99603923	     -5.29094151	     -1.53420047	     -5.95995114	      0.80483933	     -1.97482572
      0.85866667	      4.16603785	     -3.98749548	      8.81763726	     -0.49541514	      1.03632038	      0.34961399	      6.09203071	     10.34085404	     -2.25766768	    -15.52775217	      3.90400975	    -12.27436493	      6.08612446	     16.63384832	     -7.99819803	      0.36032548	    -66.94979738	     -0.31613539	     -5.23301689	     -1.56866521	     -6.02238975	      0.68738898	     -1.80501969
      0.86283333	      4.14865389	     -3.88694611	      8.72195174	     -0.49065490	      1.03704097	      0.34991878	      5.65875189	     10.28200194	     -2.20462927	    -15.26134696	      4.03249411	    -12.08640393	      6.08513502	     17.06760470	     -7.80738307	      0.30570457	    -66.40285797	      0.31896512	     -5.20964902	     -1.59501635	     -6.08765598	      0.57553617	     -1.63937807
      0.86700000	      4.13811942	     -3.78572928	      8.61411193	     -0.48588488	      1.03773971	      0.35023199	      5.21290352	     10.22346541	     -2.13461927	    -14.98710969	      4.16538637	    -11.89783072	      6.08357598	     17.47403100	     -7.62061875	      0.23743157	    -65.80221496	      0.90305625	     -5.18800104	     -1.61760157	     -6.14506828	      0.45575017	     -1.45783051
      0.87116667	      4.11786713	     -3.70256996	      8.49425626	     -0.48109399	      1.03837868	      0.35056543	      4.77630248	     10.18382631	     -2.06085146	    -14.70296323	      4.28115553	    -11.73718623	      6.08262745	     17.87923583	     -7.46217000	      0.14754734	    -65.15987954	      1.43850836	     -5.21120474	     -1.62832022	     -6.16630668	      0.33110678	     -1.30950419
      0.87533333	      4.13088888	     -3.59745730	      8.34193723	     -0.47635678	      1.03905479	      0.35090042	      4.31141717	     10.12343879	     -1.93911584	    -14.44745188	      4.43595716	    -11.52529461	      6.07915692	     18.21584441	     -7.28265339	      0.04090508	    -64.45312879	      1.96611120	     -5.13445561	     -1.64833897	     -6.27386058	      0.23554005	     -1.03203211
      0.87950000	      4.13318507	     -3.52088586	      8.19544009	     -0.47157998	      1.03967095	      0.35124174	      3.84926579	     10.09204566	     -1.82782355	    -14.16277748	      4.58648376	    -11.31871048	      6.06812532	     18.55846298	     -7.14007762	     -0.06718242	    -63.70679621	      2.41920420	     -5.10404820	     -1.68273528	     -6.32045133	      0.14257207	     -0.71083636
      0.88366667	      4.11440063	     -3.42879389	      8.01911232	     -0.46682615	      1.04023084	      0.35159961	      3.41989834	     10.03930210	     -1.68307181	    -13.90554745	      4.72007219	    -11.14699065	      6.05515386	     18.89679761	     -6.97982354	     -0.20323378	    -62.90490603	      2.84432398	     -5.11421106	     -1.71123770	     -6.36059790	      0.03372797	     -0.45238037
      0.88783333	      4.10865853	     -3.33726104	      7.82697928	     -0.46207200	      1.04078592	      0.35197321	      2.97538938	      9.98798422	     -1.52036794	    -13.64560925	      4.84596185	    -10.98191150	      6.03917431	     19.19863609	     -6.82871822	     -0.35763575	    -62.04973255	      3.23636618	     -5.13153535	     -1.73713823	     -6.41534256	     -0.07160656	     -0.17596775
      0.89200000	      4.08591506	     -3.25354568	      7.62283412	     -0.45732372	      1.04126593	      0.35235595	      2.55503655	      9.94051346	     -1.34303553	    -13.39505133	      4.97135635	    -10.82506822	      6.01955627	     19.50431105	     -6.68783508	     -0.52169095	    -61.15265451	      3.59419742	     -5.15773118	     -1.76205084	     -6.44739771	     -0.16999433	      0.11722325
      0.89616667	      4.07823687	     -3.17073749	      7.40393971	     -0.45257174	      1.04175583	      0.35275362	      2.11690492	      9.89475061	     -1.14475944	    -13.14103041	      5.08837047	    -10.67792240	      5.99746425	     19.76952834	     -6.55718049	     -0.70385290	    -60.19892531	      3.91383355	     -5.19814451	     -1.78478133	     -6.49687648	     -0.26538125	      0.40911056
      0.90033333	      4.04811183	     -3.09296764	      7.17182378	     -0.44783110	      1.04215221	      0.35315888	      1.71147028	      9.84812493	     -0.93275468	    -12.90349247	      5.20634844	    -10.53187051	      5.96900919	     20.04409008	     -6.43197203	     -0.89576223	    -59.20625070	      4.20164295	     -5.25527132	     -1.80993533	     -6.52163670	     -0.35890608	      0.73818093
      0.90450000	      4.03218921	     -3.01969089	      6.92742161	     -0.44308465	      1.04255089	      0.35357440	      1.29207252	      9.80566713	     -0.70609256	    -12.66733695	      5.31602432	    -10.39695072	      5.93566955	     20.28097890	     -6.31996322	     -1.10230266	    -58.16186350	      4.45325256	     -5.32432340	     -1.83685746	     -6.56024093	     -0.44191396	      1.05336374
      0.90866667	      4.00322888	     -2.95228425	      6.67680407	     -0.43833045	      1.04288403	      0.35399973	      0.88941235	      9.76582651	     -0.47203329	    -12.43573044	      5.44739379	    -10.28406504	      5.90818892	     20.51507690	     -6.21892266	     -1.32035523	    -57.07216531	      4.66118366	     -5.39956187	     -1.85895532	     -6.56589800	     -0.52284076	      1.34132260
      0.91283333	      3.95354596	     -2.87841641	      6.40209899	     -0.43359687	      1.04315314	      0.35444503	      0.52195784	      9.71221997	     -0.21013978	    -12.23289337	      5.56027223	    -10.16350914	      5.88771304	     20.74738494	     -6.11287504	     -1.55750812	    -55.93496880	      4.85174577	     -5.49555661	     -1.87671144	     -6.58066751	     -0.60961469	      1.59053791
      0.91700000	      3.94143142	     -2.81688442	      6.14644619	     -0.42882941	      1.04345317	      0.35485118	      0.09764853	      9.67246366	      0.03466221	    -11.98941058	      5.67974045	    -10.03783182	      5.84745247	     20.92240950	     -6.01852774	     -1.77432538	    -54.74897864	      4.97739758	     -5.63331091	     -1.91184519	     -6.59703474	     -0.68286696	      2.02005813
